<svg id="图层_1" data-name="图层 1" xmlns="http://www.w3.org/2000/svg" viewBox="0 0 16.74 16.14"><defs><style>.cls-1{fill:#fff;}</style></defs><title>seek</title><path class="cls-1" d="M8.38,16.14a8.39,8.39,0,0,1-7.74-5,7.85,7.85,0,0,1,1.81-8.8A8.61,8.61,0,0,1,11.57.61a8.07,8.07,0,0,1,5.17,7.46,8.23,8.23,0,0,1-8.36,8.07Zm0-14.94a7.12,7.12,0,0,0-6.6,4.24A6.71,6.71,0,0,0,3.32,13a7.34,7.34,0,0,0,7.79,1.49,6.91,6.91,0,0,0,4.4-6.37A7,7,0,0,0,8.38,1.2Z"/><path class="cls-1" d="M16.7,17.33a.58.58,0,0,1-.43-.18l-3-3a.59.59,0,0,1-.16-.59.65.65,0,0,1,.44-.44.67.67,0,0,1,.61.16l3,3a.6.6,0,0,1,.14.66.62.62,0,0,1-.57.38ZM3.62,7a.62.62,0,0,1-.52-.26A.61.61,0,0,1,3,6.17,5.61,5.61,0,0,1,6.12,3a.63.63,0,0,1,.81.35.61.61,0,0,1-.34.79h0a4.34,4.34,0,0,0-2.5,2.45A.61.61,0,0,1,3.62,7Z"/></svg>